<?xml version="1.0" standalone="no"?>
<!DOCTYPE svg PUBLIC "-//W3C//DTD SVG 20010904//EN"
 "http://www.w3.org/TR/2001/REC-SVG-20010904/DTD/svg10.dtd">
<svg version="1.0" xmlns="http://www.w3.org/2000/svg"
 width="180.000000pt" height="180.000000pt" viewBox="0 0 180.000000 180.000000"
 preserveAspectRatio="xMidYMid meet">
<metadata>
Created by potrace 1.10, written by Peter Selinger 2001-2011
</metadata>
<g transform="translate(0.000000,180.000000) scale(0.100000,-0.100000)"
fill="#000000" stroke="none">
<path d="M391 1761 c-12 -22 -37 -84 -55 -137 -19 -53 -53 -124 -75 -157 -44
-70 -66 -128 -80 -218 -6 -34 -18 -70 -28 -81 -15 -17 -15 -21 -3 -28 8 -6 22
-10 31 -10 13 0 14 -11 6 -82 -13 -115 1 -173 58 -236 54 -60 95 -80 130 -64
23 11 26 9 46 -31 45 -88 127 -204 170 -237 l43 -35 -121 -5 c-115 -5 -124 -7
-164 -35 -71 -51 -83 -86 -87 -257 l-3 -148 264 0 c232 0 266 2 271 16 12 32
5 54 -24 80 -36 33 -31 44 20 44 33 0 43 6 66 35 14 19 29 35 33 35 3 0 17
-16 30 -35 17 -25 31 -35 50 -35 14 0 36 -3 47 -6 21 -5 20 -7 -12 -37 -30
-28 -34 -36 -28 -64 l7 -33 268 0 269 0 0 117 c0 148 -19 222 -70 273 -45 45
-99 61 -202 59 -46 0 -89 0 -97 0 -8 1 6 16 31 35 50 39 97 105 152 214 33 66
38 71 52 57 9 -8 23 -15 31 -15 32 0 102 51 132 96 37 57 46 96 38 180 l-6 64
29 0 c62 0 81 28 33 47 l-28 11 33 1 c41 1 41 13 -3 47 -25 18 -35 34 -35 53
0 60 -33 149 -85 232 -30 48 -66 116 -79 151 -14 36 -37 90 -52 121 l-28 57
-48 0 c-26 0 -48 -4 -48 -10 0 -5 -10 -10 -21 -10 -18 0 -19 -2 -9 -15 22 -26
-9 -17 -34 10 l-23 25 -322 0 c-309 0 -322 -1 -338 -20 -21 -24 -55 -28 -47
-5 4 9 1 15 -7 15 -8 0 -24 3 -36 6 -18 5 -25 -1 -42 -35z m152 -15 c7 -18 -1
-26 -18 -19 -8 2 -11 11 -8 19 7 18 19 18 26 0z m640 7 c-7 -2 -19 -2 -25 0
-7 3 -2 5 12 5 14 0 19 -2 13 -5z m-344 -161 c17 -13 36 -20 42 -16 27 16 159
44 213 44 54 0 61 -3 96 -37 35 -36 37 -42 44 -126 4 -48 13 -108 21 -132 l13
-45 -62 0 c-81 0 -175 -17 -206 -38 -14 -9 -28 -17 -32 -17 -5 0 -7 -4 -5 -10
4 -17 133 -6 179 15 24 11 65 20 93 20 46 0 51 -3 63 -29 7 -16 28 -44 46 -61
30 -30 32 -36 25 -69 -14 -60 -12 -71 16 -71 28 0 29 12 -6 -130 -21 -82 -76
-201 -137 -296 -29 -45 -65 -80 -135 -132 l-95 -72 -132 0 -133 0 -88 71
c-135 110 -239 280 -282 467 l-25 102 24 0 c26 0 28 14 15 75 -5 26 1 36 52
87 51 51 62 58 97 58 22 0 62 -9 90 -20 54 -21 164 -28 175 -10 3 5 1 18 -5
27 -9 15 -10 14 -5 -7 5 -21 4 -22 -5 -7 -6 9 -15 15 -20 12 -5 -3 -12 0 -16
6 -4 8 -3 9 4 5 7 -4 12 -3 12 2 0 6 -10 11 -22 11 -161 11 -203 11 -230 2
-27 -9 -29 -9 -23 7 13 32 45 165 45 186 0 45 23 101 53 129 30 28 33 29 123
25 77 -2 97 -7 123 -26z m-531 -532 c7 -19 10 -30 5 -25 -4 6 -19 23 -33 39
-22 25 -23 28 -6 25 11 -2 26 -19 34 -39z m-68 3 c1 -26 2 -26 14 -10 12 15
15 16 26 2 11 -13 10 -18 -6 -30 -18 -14 -18 -14 9 -15 34 0 35 -16 2 -42 -30
-23 -33 -61 -8 -113 16 -33 20 -36 57 -33 33 2 41 -1 44 -16 10 -48 -44 -45
-97 6 -62 60 -82 135 -65 241 8 43 24 50 24 10z m1250 12 c-7 -9 -15 -13 -17
-11 -7 7 7 26 19 26 6 0 6 -6 -2 -15z m64 -17 c3 -13 6 -50 6 -82 0 -70 -26
-133 -72 -171 -54 -46 -108 -44 -93 4 5 18 12 20 43 15 33 -5 39 -3 55 24 26
45 22 96 -9 121 -28 22 -23 46 7 38 22 -6 26 11 4 19 -11 5 -12 10 -4 27 10
18 12 19 21 4 13 -24 27 -21 21 3 -3 11 -1 20 5 20 5 0 12 -10 16 -22z m-106
-59 c-8 -23 -7 -41 2 -69 11 -34 11 -43 -4 -65 -14 -22 -46 -35 -46 -19 0 16
34 152 42 167 14 27 18 20 6 -14z m-1121 4 c-4 -3 -7 0 -7 7 0 7 3 10 7 7 3
-4 3 -10 0 -14z m-20 -73 c-9 -23 -8 -38 0 -62 l12 -33 -19 24 c-11 13 -20 38
-20 55 0 35 6 46 26 46 9 0 10 -7 1 -30z m1181 -13 c3 -38 -11 -77 -29 -77 -5
0 -2 11 7 25 16 24 15 38 -1 79 -6 14 -4 18 6 14 8 -2 15 -21 17 -41z m-1132
-34 c8 -54 -9 -58 -33 -8 -14 28 -14 37 -3 50 17 21 28 9 36 -42z m357 -500
c16 -15 43 -19 158 -21 128 -3 142 -2 174 18 41 25 48 9 15 -33 -30 -37 -82
-52 -190 -51 -120 0 -166 21 -184 82 -9 26 1 28 27 5z"/>
<path d="M980 1255 c-7 -9 -11 -18 -8 -20 3 -3 11 1 18 10 7 9 11 18 8 20 -3
3 -11 -1 -18 -10z"/>
<path d="M513 1136 c-24 -20 -25 -26 -14 -40 17 -21 32 -21 24 0 -7 20 13 34
50 34 27 0 36 -13 17 -25 -5 -3 -10 -10 -10 -16 0 -11 70 -13 70 -1 0 4 7 16
15 26 15 19 15 19 40 -4 18 -17 25 -20 25 -8 0 8 -10 24 -23 36 -19 18 -35 22
-95 22 -60 0 -75 -4 -99 -24z"/>
<path d="M818 1035 c4 -102 1 -133 -14 -174 -19 -54 -44 -68 -44 -25 0 14 -4
23 -10 19 -40 -24 43 -95 111 -95 22 0 47 4 57 10 9 5 29 14 45 20 21 7 27 16
27 40 0 16 -4 30 -8 30 -4 0 -8 -12 -7 -27 0 -22 -5 -29 -24 -31 -14 -2 -35
-11 -48 -19 -16 -10 -34 -13 -58 -9 -31 6 -35 10 -35 39 0 18 6 39 13 46 15
15 17 275 2 290 -8 8 -10 -27 -7 -114z"/>
<path d="M1041 1134 c-12 -15 -21 -31 -21 -35 0 -16 15 -10 28 11 8 13 23 20
45 20 31 -1 31 -1 12 -16 -17 -13 -18 -16 -5 -24 27 -17 58 -11 77 16 17 23
23 25 41 15 14 -7 19 -17 15 -27 -5 -14 -3 -14 16 -3 27 18 27 20 -12 47 -27
18 -47 22 -104 22 -65 0 -73 -2 -92 -26z"/>
<path d="M558 983 c29 -2 74 -2 100 0 26 2 2 3 -53 3 -55 0 -76 -1 -47 -3z"/>
<path d="M1133 983 c32 -2 81 -2 110 0 29 2 3 3 -58 3 -60 0 -84 -1 -52 -3z"/>
<path d="M1168 963 c23 -2 61 -2 85 0 23 2 4 4 -43 4 -47 0 -66 -2 -42 -4z"/>
<path d="M548 953 c28 -2 76 -2 105 0 28 2 5 3 -53 3 -58 0 -81 -1 -52 -3z"/>
<path d="M575 930 c-25 -6 -20 -8 28 -9 32 0 57 3 57 9 0 11 -40 11 -85 0z"/>
<path d="M1183 933 c15 -2 39 -2 55 0 15 2 2 4 -28 4 -30 0 -43 -2 -27 -4z"/>
<path d="M588 903 c12 -2 30 -2 40 0 9 3 -1 5 -23 4 -22 0 -30 -2 -17 -4z"/>
<path d="M1190 899 c0 -5 19 -9 42 -9 49 0 47 5 -4 13 -21 3 -38 2 -38 -4z"/>
<path d="M541 886 c12 -10 60 -16 54 -6 -3 5 -18 10 -32 10 -15 0 -24 -2 -22
-4z"/>
<path d="M1190 870 c0 -5 9 -10 20 -10 11 0 20 5 20 10 0 6 -9 10 -20 10 -11
0 -20 -4 -20 -10z"/>
<path d="M670 770 c-12 -7 -12 -12 -2 -22 9 -9 15 -9 24 0 16 16 -2 34 -22 22z"/>
<path d="M650 672 c0 -2 30 -17 67 -34 64 -29 72 -30 173 -26 75 4 124 12 173
28 37 13 67 26 67 29 0 4 -108 6 -240 6 -132 0 -240 -1 -240 -3z m371 -30
c-40 -16 -273 -14 -290 3 -7 7 46 10 157 11 152 0 164 -1 133 -14z"/>
<path d="M840 10 c-18 -6 -4 -8 45 -8 49 0 63 2 45 8 -14 4 -34 8 -45 8 -11 0
-31 -4 -45 -8z"/>
</g>
</svg>
